<svg enable-background="new 0 0 160 160" height="160" viewBox="0 0 160 160" width="160" xmlns="http://www.w3.org/2000/svg"><g id="Line_icons"><path d="m-1500-1204.991h3160v2608h-3160z" fill="#fff"/><g><g><path d="m86.417 160c-1.198 0-2.4-.429-3.358-1.297-2.045-1.856-2.198-5.019-.343-7.063l65.254-71.912-65.242-71.354c-1.863-2.038-1.722-5.201.316-7.064 2.038-1.862 5.201-1.722 7.064.316l68.314 74.715c1.741 1.905 1.747 4.822.013 6.734l-68.313 75.285c-.987 1.087-2.344 1.64-3.705 1.64z" fill="#82368c"/></g><g><path d="m154.733 84.714h-149.466c-2.761 0-5-2.238-5-5s2.239-5 5-5h149.466c2.762 0 5 2.238 5 5s-2.238 5-5 5z" fill="#82368c"/></g></g></g><g id="Raster" display="none"><path d="m148 160h-136c-6.627 0-12-5.373-12-12v-136c0-6.627 5.373-12 12-12h136c6.627 0 12 5.373 12 12v136c0 6.627-5.373 12-12 12z" display="inline" fill="#e6007e" opacity=".3"/></g></svg>